<svg width="241" height="241" viewBox="0 0 241 241" fill="none" xmlns="http://www.w3.org/2000/svg">
<path d="M62.1454 51.9813L179.836 52.0119C179.766 57.5646 179.779 63.118 179.866 68.6703C153.835 94.9392 127.168 121.366 101.494 147.936L178.211 147.946L178.192 158.941L152.61 175.974C142.184 183.154 131.702 190.248 121.16 197.255L62.6983 158.888C90.0194 129.768 118.264 99.1831 146.126 70.7295C118.64 71.1885 89.7152 70.7738 62.1604 70.7312L62.1454 51.9813Z" fill="#FEFEFE"/>
<path d="M118.114 10.1891L118.304 10.3212C118.78 11.7076 118.58 27.431 118.6 30.2006L52.3975 44.6404C52.0993 66.6315 52.2484 89.5982 52.3992 111.603C48.6014 109.878 44.807 107.869 41.0867 105.966L35.1006 102.814C34.8893 94.4972 35.0763 85.369 35.0773 77.0002L35.1033 28.3285C44.4591 26.7919 58.1513 23.3716 67.6382 21.2562L118.114 10.1891Z" fill="#FEFEFE"/>
<path d="M122.804 10C131.982 12.5838 144.315 14.9212 153.875 17.0117L205.857 28.6544L205.947 102.911L200.557 105.849C196.979 107.882 193.228 109.769 189.569 111.666C189.403 105.087 189.593 97.5823 189.603 90.9421L189.612 44.9486L122.794 30.2305L122.804 10Z" fill="#FEFEFE"/>
<path d="M35.1426 110.181C40.7705 112.901 46.6994 116.443 52.4538 119.329C52.1679 124.309 52.3393 130.716 52.341 135.789L52.296 165.875C61.4128 171.577 71.476 178.624 80.4963 184.669L119.392 210.647C119.186 217.371 119.289 224.77 119.219 231.538C118.191 231.495 105.573 222.038 103.711 220.663C88.6527 209.771 73.4476 199.086 58.1004 188.603C51.6899 184.216 40.6913 177.302 35.0028 172.709C35.576 152.543 35.0388 130.567 35.1426 110.181Z" fill="#FEFEFE"/>
<path d="M205.664 110.634C206.057 112.145 205.883 125.477 205.887 127.78L206 173.538C199.396 177.629 189.872 184.755 183.308 189.362C163.565 203.28 143.972 217.411 124.532 231.748C123.816 228.162 124.439 214.871 124.445 210.37C145.656 195.534 168.059 180.811 189.543 166.304C189.972 151.714 189.756 134.025 189.516 119.355C194.882 116.582 200.294 113.483 205.664 110.634Z" fill="#FEFEFE"/>
</svg>
